<svg width="61" height="138" viewBox="0 0 61 138" fill="none" xmlns="http://www.w3.org/2000/svg">
<mask id="path-1-outside-1_263_47" maskUnits="userSpaceOnUse" x="-4.77588" y="-4.64197" width="71" height="147" fill="black">
<rect fill="white" x="-4.77588" y="-4.64197" width="71" height="147"/>
<path d="M60.5281 137.358H27.3281V30.758L5.12811 34.358L0.328114 7.15803L40.7281 0.758027H60.5281V137.358Z"/>
</mask>
<path d="M60.5281 137.358H27.3281V30.758L5.12811 34.358L0.328114 7.15803L40.7281 0.758027H60.5281V137.358Z" fill="white" fill-opacity="0.02"/>
<path d="M60.5281 137.358V142.358C63.2895 142.358 65.5281 140.119 65.5281 137.358H60.5281ZM27.3281 137.358H22.3281C22.3281 140.119 24.5667 142.358 27.3281 142.358V137.358ZM27.3281 30.758H32.3281C32.3281 29.2921 31.6848 27.9 30.5683 26.95C29.4519 26 27.9748 25.5878 26.5278 25.8225L27.3281 30.758ZM5.12811 34.358L0.204196 35.227C0.679378 37.9196 3.22943 39.7312 5.92847 39.2935L5.12811 34.358ZM0.328114 7.15803L-0.45421 2.21961C-1.77899 2.42948 -2.9639 3.16282 -3.74271 4.25486C-4.52152 5.3469 -4.8289 6.70606 -4.5958 8.02695L0.328114 7.15803ZM40.7281 0.758026V-4.24197C40.4661 -4.24197 40.2046 -4.22138 39.9458 -4.18039L40.7281 0.758026ZM60.5281 0.758026H65.5281C65.5281 -2.0034 63.2895 -4.24197 60.5281 -4.24197V0.758026ZM60.5281 132.358H27.3281V142.358H60.5281V132.358ZM32.3281 137.358V30.758H22.3281V137.358H32.3281ZM26.5278 25.8225L4.32776 29.4225L5.92847 39.2935L28.1285 35.6936L26.5278 25.8225ZM10.052 33.4891L5.25203 6.2891L-4.5958 8.02695L0.204196 35.227L10.052 33.4891ZM1.11044 12.0964L41.5104 5.69645L39.9458 -4.18039L-0.45421 2.21961L1.11044 12.0964ZM40.7281 5.75803H60.5281V-4.24197H40.7281V5.75803ZM55.5281 0.758026V137.358H65.5281V0.758026H55.5281Z" fill="#CE1A2E" mask="url(#path-1-outside-1_263_47)"/>
</svg>
