<svg width="97" height="141" viewBox="0 0 97 141" fill="none" xmlns="http://www.w3.org/2000/svg">
<mask id="path-1-outside-1_293_21" maskUnits="userSpaceOnUse" x="-5.24561" y="-4.64197" width="108" height="150" fill="black">
<rect fill="white" x="-5.24561" y="-4.64197" width="108" height="150"/>
<path d="M8.76854 41.358L0.568543 12.358C12.9685 6.55803 35.9685 0.358023 49.7685 0.358023C81.9685 0.358023 96.7685 18.158 96.7685 44.358C96.7685 57.758 92.3685 67.758 80.5685 75.958C69.7685 83.758 46.7685 89.958 40.1685 100.158C38.1685 103.158 37.5685 105.958 36.9685 111.558H96.9686V140.358H1.36854C1.36854 106.158 2.36854 97.958 11.3685 84.358C22.9685 66.958 44.3685 62.358 56.7685 54.558C60.1685 52.358 62.1685 48.558 62.1685 44.358C62.1685 34.158 58.3685 29.358 49.7685 29.358C40.7685 29.358 22.5685 35.158 8.76854 41.358Z"/>
</mask>
<path d="M8.76854 41.358L0.568543 12.358C12.9685 6.55803 35.9685 0.358023 49.7685 0.358023C81.9685 0.358023 96.7685 18.158 96.7685 44.358C96.7685 57.758 92.3685 67.758 80.5685 75.958C69.7685 83.758 46.7685 89.958 40.1685 100.158C38.1685 103.158 37.5685 105.958 36.9685 111.558H96.9686V140.358H1.36854C1.36854 106.158 2.36854 97.958 11.3685 84.358C22.9685 66.958 44.3685 62.358 56.7685 54.558C60.1685 52.358 62.1685 48.558 62.1685 44.358C62.1685 34.158 58.3685 29.358 49.7685 29.358C40.7685 29.358 22.5685 35.158 8.76854 41.358Z" fill="white" fill-opacity="0.02"/>
<path d="M8.76854 41.358L3.95719 42.7185C4.35271 44.1173 5.33739 45.2747 6.65474 45.8892C7.97208 46.5038 9.49166 46.5146 10.8176 45.9189L8.76854 41.358ZM0.568543 12.358L-1.54988 7.82898C-3.76935 8.86711 -4.90951 11.3607 -4.24282 13.7185L0.568543 12.358ZM80.5686 75.958L77.7153 71.8521C77.6904 71.8694 77.6657 71.8869 77.6411 71.9046L80.5686 75.958ZM40.1685 100.158L44.3288 102.932C44.3415 102.913 44.354 102.893 44.3664 102.874L40.1685 100.158ZM36.9685 111.558L31.997 111.025C31.8459 112.436 32.3012 113.845 33.2495 114.9C34.1978 115.955 35.5497 116.558 36.9685 116.558V111.558ZM96.9686 111.558H101.969C101.969 108.797 99.73 106.558 96.9686 106.558V111.558ZM96.9686 140.358V145.358C99.73 145.358 101.969 143.119 101.969 140.358H96.9686ZM1.36854 140.358H-3.63146C-3.63146 143.119 -1.39288 145.358 1.36854 145.358L1.36854 140.358ZM11.3685 84.358L7.20829 81.5845C7.20515 81.5892 7.20201 81.594 7.19888 81.5987L11.3685 84.358ZM56.7685 54.558L59.4308 58.7903C59.4489 58.779 59.4669 58.7675 59.4848 58.7559L56.7685 54.558ZM13.5799 39.9976L5.3799 10.9976L-4.24282 13.7185L3.95719 42.7185L13.5799 39.9976ZM2.68697 16.8871C8.51512 14.161 17.0438 11.2552 25.8657 9.03136C34.7253 6.79805 43.4672 5.35802 49.7685 5.35802V-4.64198C42.2699 -4.64198 32.6118 -2.98201 23.4214 -0.66531C14.1933 1.66088 5.02197 4.75505 -1.54988 7.82898L2.68697 16.8871ZM49.7685 5.35802C64.9644 5.35802 75.282 9.54254 81.808 16.0686C88.3415 22.602 91.7685 32.1758 91.7685 44.358H101.769C101.769 30.3402 97.7956 17.914 88.8791 8.99749C79.9551 0.0735092 66.7727 -4.64198 49.7685 -4.64198V5.35802ZM91.7685 44.358C91.7685 50.5089 90.7603 55.5526 88.6128 59.8892C86.4756 64.2051 83.0496 68.1452 77.7153 71.8521L83.4218 80.064C89.8875 75.5709 94.5615 70.4109 97.5743 64.3268C100.577 58.2634 101.769 51.6072 101.769 44.358H91.7685ZM77.6411 71.9046C72.7234 75.4563 65.0285 78.6233 56.6317 82.6495C52.6178 84.5742 48.5421 86.6652 45.001 88.9919C41.5063 91.2881 38.169 94.0444 35.9707 97.4418L44.3664 102.874C45.4681 101.172 47.4808 99.328 50.4923 97.3492C53.4575 95.4009 57.0443 93.5419 60.9554 91.6665C68.4086 88.0927 77.6136 84.2598 83.496 80.0114L77.6411 71.9046ZM36.0083 97.3845C33.2918 101.459 32.6091 105.312 31.997 111.025L41.9401 112.091C42.5279 106.604 43.0453 104.857 44.3288 102.932L36.0083 97.3845ZM36.9685 116.558H96.9686V106.558H36.9685V116.558ZM91.9686 111.558V140.358H101.969V111.558H91.9686ZM96.9686 135.358H1.36854V145.358H96.9686V135.358ZM6.36854 140.358C6.36854 123.167 6.63157 113.007 7.92173 105.477C9.15471 98.2813 11.3308 93.4752 15.5382 87.1174L7.19888 81.5987C2.40628 88.8409 -0.41762 94.9348 -1.93464 103.789C-3.39449 112.309 -3.63146 123.349 -3.63146 140.358H6.36854ZM15.5288 87.1315C20.6407 79.4637 28.0168 74.444 36.0577 70.3032C40.0986 68.2223 44.1382 66.4439 48.1563 64.6041C52.0836 62.806 56.0202 60.9357 59.4308 58.7903L54.1063 50.3257C51.3169 52.0804 47.9285 53.7101 43.9933 55.5119C40.1489 57.2721 35.7885 59.1938 31.4794 61.4128C22.8203 65.872 13.6964 71.8524 7.20829 81.5845L15.5288 87.1315ZM59.4848 58.7559C64.3844 55.5856 67.1685 50.162 67.1685 44.358H57.1685C57.1685 46.9541 55.9527 49.1305 54.0523 50.3602L59.4848 58.7559ZM67.1685 44.358C67.1685 38.804 66.1651 33.6579 63.0633 29.8668C59.7807 25.8548 55.0026 24.358 49.7685 24.358V34.358C53.1344 34.358 54.5564 35.2613 55.3238 36.1992C56.272 37.3582 57.1685 39.712 57.1685 44.358H67.1685ZM49.7685 24.358C44.4913 24.358 37.0985 25.9988 29.6288 28.2448C22.0177 30.5333 13.8143 33.6097 6.71947 36.7972L10.8176 45.9189C17.5228 42.9064 25.3194 39.9828 32.5083 37.8213C39.8386 35.6172 46.0458 34.358 49.7685 34.358V24.358Z" fill="#CE1A2E" mask="url(#path-1-outside-1_293_21)"/>
</svg>
