<svg width="103" height="143" viewBox="0 0 103 143" fill="none" xmlns="http://www.w3.org/2000/svg">
<mask id="path-1-outside-1_293_23" maskUnits="userSpaceOnUse" x="-5.07861" y="-5.06677" width="113" height="153" fill="black">
<rect fill="white" x="-5.07861" y="-5.06677" width="113" height="153"/>
<path d="M7.21522 39.7332L2.21522 9.93322C18.0152 5.33322 35.6152 0.133215 50.0152 0.133215C84.6152 0.133215 99.8152 14.7332 99.8152 42.3332C99.8152 52.9332 97.2152 61.3332 91.4152 68.5332C99.6152 76.9332 102.215 87.3332 102.215 98.7332C102.215 135.533 78.6152 142.333 50.2152 142.333C36.0152 142.333 22.8152 139.933 0.615223 132.933L8.41522 104.533C30.6152 111.133 40.6152 113.533 50.2152 113.533C61.6152 113.533 67.6152 111.933 67.6152 98.7332C67.6152 90.1332 64.0152 83.5332 56.8152 83.5332H12.6152V54.7332H56.8152C62.4152 54.7332 65.2152 50.3332 65.2152 42.3332C65.2152 32.1332 60.4152 28.9332 50.0152 28.9332C41.0152 28.9332 26.4152 32.1332 7.21522 39.7332Z"/>
</mask>
<path d="M7.21522 39.7332L2.21522 9.93322C18.0152 5.33322 35.6152 0.133215 50.0152 0.133215C84.6152 0.133215 99.8152 14.7332 99.8152 42.3332C99.8152 52.9332 97.2152 61.3332 91.4152 68.5332C99.6152 76.9332 102.215 87.3332 102.215 98.7332C102.215 135.533 78.6152 142.333 50.2152 142.333C36.0152 142.333 22.8152 139.933 0.615223 132.933L8.41522 104.533C30.6152 111.133 40.6152 113.533 50.2152 113.533C61.6152 113.533 67.6152 111.933 67.6152 98.7332C67.6152 90.1332 64.0152 83.5332 56.8152 83.5332H12.6152V54.7332H56.8152C62.4152 54.7332 65.2152 50.3332 65.2152 42.3332C65.2152 32.1332 60.4152 28.9332 50.0152 28.9332C41.0152 28.9332 26.4152 32.1332 7.21522 39.7332Z" fill="white" fill-opacity="0.02"/>
<path d="M7.21522 39.7332L2.28415 40.5606C2.53395 42.0494 3.443 43.3456 4.75766 44.0876C6.07232 44.8296 7.65184 44.9379 9.05546 44.3822L7.21522 39.7332ZM2.21522 9.93322L0.817557 5.13254C-1.61687 5.8413 -3.1354 8.26003 -2.71585 10.7606L2.21522 9.93322ZM91.4152 68.5332L87.5215 65.3966C85.9336 67.3678 86.0692 70.2146 87.8374 72.0259L91.4152 68.5332ZM0.615223 132.933L-4.20624 131.609C-4.9183 134.202 -3.45258 136.893 -0.888378 137.702L0.615223 132.933ZM8.41522 104.533L9.84007 99.7405C8.55158 99.3575 7.16312 99.5094 5.98792 100.162C4.81271 100.815 3.94977 101.913 3.59376 103.209L8.41522 104.533ZM12.6152 83.5332H7.61522C7.61522 86.2946 9.8538 88.5332 12.6152 88.5332V83.5332ZM12.6152 54.7332V49.7332C9.8538 49.7332 7.61522 51.9718 7.61522 54.7332H12.6152ZM12.1463 38.9059L7.1463 9.10586L-2.71585 10.7606L2.28415 40.5606L12.1463 38.9059ZM3.61289 14.7339C19.6591 10.0622 36.4862 5.13322 50.0152 5.13322V-4.86678C34.7443 -4.86678 16.3713 0.604225 0.817557 5.13254L3.61289 14.7339ZM50.0152 5.13322C66.7384 5.13322 77.7708 8.68041 84.6002 14.6483C91.2917 20.4957 94.8152 29.4409 94.8152 42.3332H104.815C104.815 27.6256 100.739 15.4708 91.1803 7.11818C81.7597 -1.11398 67.8921 -4.86678 50.0152 -4.86678V5.13322ZM94.8152 42.3332C94.8152 52.0227 92.4732 59.2496 87.5215 65.3966L95.309 71.6699C101.957 63.4168 104.815 53.8438 104.815 42.3332H94.8152ZM87.8374 72.0259C94.813 79.1717 97.2152 88.1095 97.2152 98.7332H107.215C107.215 86.557 104.417 74.6948 94.9931 65.0405L87.8374 72.0259ZM97.2152 98.7332C97.2152 115.963 91.7794 125.048 84.0917 130.173C75.9501 135.601 64.2483 137.333 50.2152 137.333V147.333C64.5822 147.333 78.8803 145.666 89.6387 138.493C100.851 131.019 107.215 118.303 107.215 98.7332H97.2152ZM50.2152 137.333C36.724 137.333 24.0674 135.085 2.11882 128.165L-0.888378 137.702C21.563 144.781 35.3064 147.333 50.2152 147.333V137.333ZM5.43668 134.257L13.2367 105.857L3.59376 103.209L-4.20624 131.609L5.43668 134.257ZM6.99037 109.326C29.072 115.891 39.7676 118.533 50.2152 118.533V108.533C41.4628 108.533 32.1585 106.376 9.84007 99.7405L6.99037 109.326ZM50.2152 118.533C55.7236 118.533 61.6646 118.258 66.0599 115.178C71.0003 111.715 72.6152 105.904 72.6152 98.7332H62.6152C62.6152 104.763 61.2302 106.351 60.3206 106.989C58.8659 108.008 56.1068 108.533 50.2152 108.533V118.533ZM72.6152 98.7332C72.6152 93.8344 71.6048 88.9637 69.0872 85.1524C66.4266 81.1245 62.209 78.5332 56.8152 78.5332V88.5332C58.6214 88.5332 59.8039 89.2419 60.7432 90.664C61.8257 92.3027 62.6152 95.032 62.6152 98.7332H72.6152ZM56.8152 78.5332H12.6152V88.5332H56.8152V78.5332ZM17.6152 83.5332V54.7332H7.61522V83.5332H17.6152ZM12.6152 59.7332H56.8152V49.7332H12.6152V59.7332ZM56.8152 59.7332C61.1465 59.7332 64.8728 57.9107 67.2755 54.3067C69.4625 51.0261 70.2152 46.7753 70.2152 42.3332H60.2152C60.2152 45.8911 59.5679 47.8403 58.955 48.7597C58.5576 49.3557 58.084 49.7332 56.8152 49.7332V59.7332ZM70.2152 42.3332C70.2152 36.5554 68.8565 31.4036 64.7086 27.9608C60.8013 24.7178 55.4788 23.9332 50.0152 23.9332V33.9332C54.9517 33.9332 57.2292 34.7487 58.3219 35.6556C59.174 36.3629 60.2152 37.9111 60.2152 42.3332H70.2152ZM50.0152 23.9332C40.0866 23.9332 24.7979 27.396 5.37498 35.0842L9.05546 44.3822C28.0326 36.8705 41.9439 33.9332 50.0152 33.9332V23.9332Z" fill="#CE1A2E" mask="url(#path-1-outside-1_293_23)"/>
</svg>
