<svg width="109" height="140" viewBox="0 0 109 140" fill="none" xmlns="http://www.w3.org/2000/svg">
<mask id="path-1-outside-1_293_25" maskUnits="userSpaceOnUse" x="-4.72314" y="-5.14551" width="119" height="150" fill="black">
<rect fill="white" x="-4.72314" y="-5.14551" width="119" height="150"/>
<path d="M68.3012 10.4545L40.3012 88.6545H57.9012V74.8545L63.7012 56.8545H92.7012V88.6545H108.301V117.854H92.7012V139.854H57.9012V117.854H0.301161V100.054L35.5012 0.0544801L68.3012 10.4545Z"/>
</mask>
<path d="M68.3012 10.4545L40.3012 88.6545H57.9012V74.8545L63.7012 56.8545H92.7012V88.6545H108.301V117.854H92.7012V139.854H57.9012V117.854H0.301161V100.054L35.5012 0.0544801L68.3012 10.4545Z" fill="white" fill-opacity="0.02"/>
<path d="M68.3012 10.4545L73.0085 12.14C73.4663 10.8615 73.3843 9.45178 72.7815 8.23494C72.1787 7.01809 71.1068 6.09878 69.8124 5.68834L68.3012 10.4545ZM40.3012 88.6545L35.5938 86.969C35.0455 88.5005 35.2764 90.203 36.2129 91.5331C37.1494 92.8631 38.6745 93.6545 40.3012 93.6545V88.6545ZM57.9012 88.6545V93.6545C60.6626 93.6545 62.9012 91.4159 62.9012 88.6545H57.9012ZM57.9012 74.8545L53.1421 73.321C52.9825 73.8165 52.9012 74.3339 52.9012 74.8545H57.9012ZM63.7012 56.8545V51.8545C61.5305 51.8545 59.6078 53.255 58.9421 55.321L63.7012 56.8545ZM92.7012 56.8545H97.7012C97.7012 54.0931 95.4626 51.8545 92.7012 51.8545V56.8545ZM92.7012 88.6545H87.7012C87.7012 91.4159 89.9397 93.6545 92.7012 93.6545V88.6545ZM108.301 88.6545H113.301C113.301 85.8931 111.063 83.6545 108.301 83.6545V88.6545ZM108.301 117.854V122.854C111.063 122.854 113.301 120.616 113.301 117.854H108.301ZM92.7012 117.854V112.854C89.9397 112.854 87.7012 115.093 87.7012 117.854H92.7012ZM92.7012 139.854V144.854C95.4626 144.854 97.7012 142.616 97.7012 139.854H92.7012ZM57.9012 139.854H52.9012C52.9012 142.616 55.1397 144.854 57.9012 144.854V139.854ZM57.9012 117.854H62.9012C62.9012 115.093 60.6626 112.854 57.9012 112.854V117.854ZM0.301161 117.854H-4.69884C-4.69884 120.616 -2.46026 122.854 0.301161 122.854V117.854ZM0.301161 100.054L-4.41518 98.3943C-4.60293 98.9277 -4.69884 99.489 -4.69884 100.054H0.301161ZM35.5012 0.0544815L37.0124 -4.71167C34.4384 -5.52782 31.6814 -4.15277 30.7848 -1.60567L35.5012 0.0544815ZM63.5938 8.76899L35.5938 86.969L45.0085 90.34L73.0085 12.14L63.5938 8.76899ZM40.3012 93.6545H57.9012V83.6545H40.3012V93.6545ZM62.9012 88.6545V74.8545H52.9012V88.6545H62.9012ZM62.6602 76.388L68.4602 58.388L58.9421 55.321L53.1421 73.321L62.6602 76.388ZM63.7012 61.8545H92.7012V51.8545H63.7012V61.8545ZM87.7012 56.8545V88.6545H97.7012V56.8545H87.7012ZM92.7012 93.6545H108.301V83.6545H92.7012V93.6545ZM103.301 88.6545V117.854H113.301V88.6545H103.301ZM108.301 112.854H92.7012V122.854H108.301V112.854ZM87.7012 117.854V139.854H97.7012V117.854H87.7012ZM92.7012 134.854H57.9012V144.854H92.7012V134.854ZM62.9012 139.854V117.854H52.9012V139.854H62.9012ZM57.9012 112.854H0.301161V122.854H57.9012V112.854ZM5.30116 117.854V100.054H-4.69884V117.854H5.30116ZM5.0175 101.715L40.2175 1.71463L30.7848 -1.60567L-4.41518 98.3943L5.0175 101.715ZM33.9899 4.82063L66.7899 15.2206L69.8124 5.68834L37.0124 -4.71167L33.9899 4.82063Z" fill="#CE1A2E" mask="url(#path-1-outside-1_293_25)"/>
</svg>
