<svg width="94" height="140" viewBox="0 0 94 140" fill="none" xmlns="http://www.w3.org/2000/svg">
<mask id="path-1-outside-1_293_29" maskUnits="userSpaceOnUse" x="-5.44629" y="-5.14551" width="104" height="150" fill="black">
<rect fill="white" x="-5.44629" y="-5.14551" width="104" height="150"/>
<path d="M87.0515 27.8545H40.8515L40.0515 49.2545C44.0515 48.6545 45.6515 48.4545 49.8515 48.4545C77.0515 48.4545 93.4515 60.4545 93.4515 94.0545C93.4515 136.054 68.2515 139.454 43.6515 139.454C36.4515 139.454 25.8515 139.454 0.0514536 131.054L7.85145 103.854C31.6515 112.054 37.8515 112.054 43.6515 112.054C54.0515 112.054 60.2515 110.854 60.2515 94.0545C60.2515 79.8545 55.2515 76.2545 47.0515 76.2545C43.2515 76.0545 39.6515 76.0545 36.0515 76.0545C25.4515 76.0545 16.2515 76.2545 5.85145 76.4545L8.45145 0.454484H87.0515V27.8545Z"/>
</mask>
<path d="M87.0515 27.8545H40.8515L40.0515 49.2545C44.0515 48.6545 45.6515 48.4545 49.8515 48.4545C77.0515 48.4545 93.4515 60.4545 93.4515 94.0545C93.4515 136.054 68.2515 139.454 43.6515 139.454C36.4515 139.454 25.8515 139.454 0.0514536 131.054L7.85145 103.854C31.6515 112.054 37.8515 112.054 43.6515 112.054C54.0515 112.054 60.2515 110.854 60.2515 94.0545C60.2515 79.8545 55.2515 76.2545 47.0515 76.2545C43.2515 76.0545 39.6515 76.0545 36.0515 76.0545C25.4515 76.0545 16.2515 76.2545 5.85145 76.4545L8.45145 0.454484H87.0515V27.8545Z" fill="white" fill-opacity="0.02"/>
<path d="M87.0515 27.8545V32.8545C89.8129 32.8545 92.0515 30.6159 92.0515 27.8545H87.0515ZM40.8515 27.8545V22.8545C38.1627 22.8545 35.9554 24.9808 35.8549 27.6677L40.8515 27.8545ZM40.0515 49.2545L35.0549 49.0677C34.9994 50.5549 35.6091 51.9895 36.7185 52.9816C37.8278 53.9736 39.3214 54.4199 40.7932 54.1992L40.0515 49.2545ZM0.0514536 131.054L-4.75483 129.676C-5.497 132.264 -4.05659 134.975 -1.49648 135.809L0.0514536 131.054ZM7.85145 103.854L9.48018 99.1272C8.18335 98.6804 6.7599 98.786 5.54317 99.4192C4.32643 100.052 3.42327 101.158 3.04517 102.476L7.85145 103.854ZM47.0515 76.2545L46.7887 81.2476C46.8762 81.2522 46.9638 81.2545 47.0515 81.2545V76.2545ZM5.85145 76.4545L0.854377 76.2835C0.807453 77.6552 1.3264 78.9858 2.28956 79.9635C3.25272 80.9411 4.57542 81.4799 5.94759 81.4536L5.85145 76.4545ZM8.45145 0.454483V-4.54552C5.75657 -4.54552 3.54652 -2.40977 3.45438 0.283531L8.45145 0.454483ZM87.0515 0.454483H92.0515C92.0515 -2.30694 89.8129 -4.54552 87.0515 -4.54552V0.454483ZM87.0515 22.8545H40.8515V32.8545H87.0515V22.8545ZM35.8549 27.6677L35.0549 49.0677L45.048 49.4413L45.848 28.0413L35.8549 27.6677ZM40.7932 54.1992C44.6415 53.6219 45.9793 53.4545 49.8515 53.4545V43.4545C45.3236 43.4545 43.4614 43.6871 39.3098 44.3098L40.7932 54.1992ZM49.8515 53.4545C62.8266 53.4545 72.2094 56.3292 78.3888 62.2614C84.5314 68.1583 88.4515 77.989 88.4515 94.0545H98.4515C98.4515 76.5199 94.1716 63.5507 85.3141 55.0475C76.4935 46.5797 64.0764 43.4545 49.8515 43.4545V53.4545ZM88.4515 94.0545C88.4515 114.026 82.5286 123.447 75.0496 128.314C67.051 133.518 56.0086 134.454 43.6515 134.454V144.454C55.8943 144.454 69.7519 143.691 80.5034 136.695C91.7743 129.362 98.4515 116.083 98.4515 94.0545H88.4515ZM43.6515 134.454C36.9524 134.454 26.8766 134.53 1.59938 126.3L-1.49648 135.809C24.8264 144.379 35.9505 144.454 43.6515 144.454V134.454ZM4.85774 132.433L12.6577 105.233L3.04517 102.476L-4.75483 129.676L4.85774 132.433ZM6.22272 108.582C18.2203 112.715 25.9674 114.848 31.5434 115.937C37.2476 117.051 40.6113 117.054 43.6515 117.054V107.054C40.8916 107.054 38.2553 107.058 33.4596 106.122C28.5355 105.161 21.2826 103.194 9.48018 99.1272L6.22272 108.582ZM43.6515 117.054C48.5647 117.054 54.621 116.927 59.0721 113.179C63.7305 109.256 65.2515 102.715 65.2515 94.0545H55.2515C55.2515 102.194 53.6724 104.653 52.6308 105.53C51.3819 106.582 49.1382 107.054 43.6515 107.054V117.054ZM65.2515 94.0545C65.2515 86.5917 63.9829 80.6441 60.5353 76.5902C56.8834 72.2962 51.7972 71.2545 47.0515 71.2545V81.2545C50.5057 81.2545 52.0196 82.0128 52.9176 83.0688C54.02 84.3649 55.2515 87.3172 55.2515 94.0545H65.2515ZM47.3143 71.2614C43.3629 71.0534 39.635 71.0545 36.0515 71.0545V81.0545C39.6679 81.0545 43.14 81.0555 46.7887 81.2476L47.3143 71.2614ZM36.0515 71.0545C25.3929 71.0545 16.139 71.2557 5.75532 71.4554L5.94759 81.4536C16.3639 81.2533 25.51 81.0545 36.0515 81.0545V71.0545ZM10.8485 76.6254L13.4485 0.625435L3.45438 0.283531L0.854377 76.2835L10.8485 76.6254ZM8.45145 5.45448H87.0515V-4.54552H8.45145V5.45448ZM82.0515 0.454483V27.8545H92.0515V0.454483H82.0515Z" fill="#CE1A2E" mask="url(#path-1-outside-1_293_29)"/>
</svg>
