<svg xmlns="http://www.w3.org/2000/svg" id="Layer_1" data-name="Layer 1" viewBox="0 0 80 80"><defs><style>.cls-1{fill:#e6e6e6;}.cls-2{fill:#cd192d;}</style></defs><title>iconos-triumph</title><circle class="cls-1" cx="40" cy="40" r="39.03"></circle><path class="cls-2" d="M60.14,25.94H46.27v-2a2.35,2.35,0,0,0-2.35-2.35H36.08a2.35,2.35,0,0,0-2.35,2.35v2H19.86a2.6,2.6,0,0,0-2.6,2.6V55.82a2.6,2.6,0,0,0,2.6,2.6H35.45a.65.65,0,1,0,0-1.3H30.9V45.43h.81a.65.65,0,0,0,.65-.65V42.83H47.63v1.95a.65.65,0,0,0,.65.65h.81V57.12H46.46a.65.65,0,1,0,0,1.3H60.14a2.6,2.6,0,0,0,2.6-2.6V28.53A2.6,2.6,0,0,0,60.14,25.94Zm1.3,2.6V37a4.55,4.55,0,0,1-4.55,4.55h-.81V35.68a.65.65,0,0,0-.65-.65h-.81v-7.8h5.52A1.3,1.3,0,0,1,61.44,28.53Zm-8.12-1.3V35H50.39v-7.8Zm1.46,9.1v2H48.93v-2ZM35,23.93a1.05,1.05,0,0,1,1.05-1.05h7.84A1.05,1.05,0,0,1,45,23.93v2H35Zm-4,14.44H25.22v-2h5.85ZM29.61,35H26.68v-7.8h2.92Zm-11-6.5a1.3,1.3,0,0,1,1.3-1.3h5.52V35h-.81a.65.65,0,0,0-.65.65v5.85h-.81A4.55,4.55,0,0,1,18.56,37Zm0,27.29V40.65a5.84,5.84,0,0,0,4.55,2.18h.81v1.95a.65.65,0,0,0,.65.65h.81V57.12H19.86A1.3,1.3,0,0,1,18.56,55.82Zm11,1.3H26.68V45.43h2.92Zm1.46-13H25.22V39.67h5.85Zm1.3-2.6V35.68a.65.65,0,0,0-.65-.65H30.9v-7.8H49.1V35h-.81a.65.65,0,0,0-.65.65v5.85Zm16.57-1.86h5.85v4.46H48.93Zm1.46,5.76h2.92V57.12H50.39Zm11,10.39a1.3,1.3,0,0,1-1.3,1.3H54.62V45.43h.81a.65.65,0,0,0,.65-.65V42.83h.81a5.84,5.84,0,0,0,4.55-2.18Z"></path><path class="cls-2" d="M41.91,57.12H40a.65.65,0,0,0,0,1.3h1.91a.65.65,0,1,0,0-1.3Z"></path></svg>