<svg xmlns="http://www.w3.org/2000/svg" id="Layer_1" data-name="Layer 1" viewBox="0 0 80 80"><defs><style>.cls-1{fill:#e6e6e6;}.cls-2{fill:#cd192d;}</style></defs><title>iconos-triumph</title><circle class="cls-1" cx="40" cy="40" r="39.03"></circle><path class="cls-2" d="M37.71,20.76a.67.67,0,0,0-.92-.25l-.49.31A.67.67,0,1,0,37,21.94l.42-.26A.67.67,0,0,0,37.71,20.76Z"></path><path class="cls-2" d="M43.28,52.34c-.23.27-.46.53-.71.8a.67.67,0,0,0,1,.91c.26-.28.51-.56.75-.84a.67.67,0,1,0-1-.87Z"></path><path class="cls-2" d="M46.72,48.23a.67.67,0,0,0-.9.32c-.15.3-.31.61-.49.92a.67.67,0,0,0,1.17.67c.19-.34.37-.68.53-1A.67.67,0,0,0,46.72,48.23Z"></path><path class="cls-2" d="M48.12,44.76c0-.18,0-.37,0-.55a.67.67,0,0,0-1.34.09c0,.15,0,.3,0,.45s0,.36,0,.54a.67.67,0,1,0,1.34.11h0C48.11,45.19,48.12,45,48.12,44.76Z"></path><path class="cls-2" d="M45.16,39.47a.67.67,0,0,0-.07.95,8.14,8.14,0,0,1,.61.8.67.67,0,0,0,1.12-.74,9.49,9.49,0,0,0-.71-.94h0A.67.67,0,0,0,45.16,39.47Z"></path><path class="cls-2" d="M43.38,38a.67.67,0,0,0-.2-.93c-.31-.2-.63-.4-1-.59a.67.67,0,1,0-.66,1.17c.31.18.62.36.9.55A.67.67,0,0,0,43.38,38Z"></path><path class="cls-2" d="M37.06,34.61a.67.67,0,0,0,.26.91l1,.53a.67.67,0,1,0,.61-1.2l-.94-.5h0A.67.67,0,0,0,37.06,34.61Z"></path><path class="cls-2" d="M34.19,33.41a.67.67,0,0,0,.87-1c-.27-.23-.53-.47-.75-.7a.67.67,0,1,0-1,.94C33.6,32.88,33.89,33.15,34.19,33.41Z"></path><path class="cls-2" d="M31.95,27.27h0a.67.67,0,0,0-.69.65s0,.1,0,.14a5.34,5.34,0,0,0,.12,1.1.67.67,0,0,0,1.32-.28,4,4,0,0,1-.09-.82s0-.07,0-.11A.67.67,0,0,0,31.95,27.27Z"></path><path class="cls-2" d="M32.8,25.13a.67.67,0,0,0,.94-.15,9.57,9.57,0,0,1,.64-.79.67.67,0,1,0-1-.9,10.9,10.9,0,0,0-.74.91A.67.67,0,0,0,32.8,25.13Z"></path><path class="cls-2" d="M40,55.6l-.4.32A.67.67,0,1,0,40.39,57l.44-.35a.67.67,0,1,0-.86-1Z"></path><path class="cls-2" d="M49.66,31.32C45.34,30,40.14,27.8,39.92,25c-.18-2.25,2.81-4.89,8.87-7.86a1,1,0,0,0-.43-2H43.49a5.5,5.5,0,0,0-2.43.57,64.22,64.22,0,0,0-6.75,3.79c-7.11,4-10.75,7.85-10.82,11.49,0,2.49,1.59,4.76,4.86,6.77,3,1.81,4.47,3.85,4.47,6,0,5.87-10.51,12.31-14,14.43A1.5,1.5,0,0,0,19.56,61h20a.67.67,0,0,0,0-1.34H24.67c11.44-7.52,18.45-17,6.78-24.13C24.17,31.1,27.2,26,34.27,21.18A60.63,60.63,0,0,1,41.65,17a4.16,4.16,0,0,1,1.84-.43h1.78c-3.56,1.92-8.78,5.34-8.56,9.37a6.16,6.16,0,0,0,2.61,4.36,26.32,26.32,0,0,0,7.94,4c6.13,2.09,9.48,5.56,10,10.32a.67.67,0,0,0,1.34-.13c-.53-5.32-4.19-9.17-10.86-11.45-6.17-2.11-9.5-4.57-9.64-7.11a4.35,4.35,0,0,1,.85-2.62c-2,4.88,5.31,7.83,10.36,9.39s8.51,4.26,10.12,8c2.72,6.26-.21,14-2.19,18.14a1.65,1.65,0,0,1-1.46,1H53.55c2.32-3.53,4.42-7.83,4.94-12a.67.67,0,1,0-1.33-.16c-.26,2.1-1.29,6.46-5.23,12.18H42.65a.67.67,0,0,0,0,1.34H55.73a3,3,0,0,0,2.67-1.74C64.48,46.76,63.08,35.47,49.66,31.32ZM30.45,36.51l.63.39c10.93,7,2.1,16-8.91,22.78H19.55a.2.2,0,0,1-.05-.14c0-.1,0-.12.06-.13,6.27-3.84,14.61-9.64,14.61-15.57,0-2.7-1.72-5.12-5.11-7.19C24.74,34,23.41,30.94,26.61,27,24.71,31,26.75,34.15,30.45,36.51Z"></path></svg>