<svg xmlns="http://www.w3.org/2000/svg" id="Layer_1" data-name="Layer 1" viewBox="0 0 80 80"><defs><style>.cls-1{fill:#e6e6e6;}.cls-2{fill:#cd192d;}</style></defs><title>iconos-triumph</title><circle class="cls-1" cx="40" cy="40" r="39.03"></circle><path class="cls-2" d="M60.53,23.64H56.12a.7.7,0,0,0,0,1.39h4.42A1.57,1.57,0,0,1,62.1,26.6V37.23a1.57,1.57,0,0,1-1.57,1.57H44.25a.7.7,0,0,0-.49.2l-4,4V39.49a.7.7,0,0,0-.7-.7H37.72a1.57,1.57,0,0,1-1.57-1.57V26.6A1.57,1.57,0,0,1,37.72,25H53.79a.7.7,0,1,0,0-1.39H37.72a3,3,0,0,0-3,3V37.23a3,3,0,0,0,3,3h.63v4.5a.7.7,0,0,0,1.19.49l5-5h16a3,3,0,0,0,3-3V26.6A3,3,0,0,0,60.53,23.64Z"></path><path class="cls-2" d="M41.68,32.57c.83-.57,1.85-1.27,1.85-2.47a1.74,1.74,0,0,0-.67-1.41,2.37,2.37,0,0,0-1.46-.49A1.9,1.9,0,0,0,39.34,30c0,.5.21.75.65.75s.76-.27.76-.53a.68.68,0,0,1,1.35,0c0,.54-.64,1-1.31,1.51s-1.55,1.14-1.55,1.9v.88c0,.27.37.45.63.45h3.24c.23,0,.44-.3.44-.64s-.21-.62-.44-.62H40.72v-.07C40.72,33.23,41.17,32.92,41.68,32.57Z"></path><path class="cls-2" d="M47.38,34.87c.5,0,.72-.23.72-.45v-1h.38c.23,0,.45-.33.45-.67s-.23-.67-.45-.67H48.1v-.62c0-.2-.19-.44-.72-.44s-.72.24-.72.44v.62h-.75l1.6-3.21a.46.46,0,0,0,0-.18.5.5,0,0,0-.27-.4.92.92,0,0,0-.45-.15.65.65,0,0,0-.6.37l-2.1,4.12a.59.59,0,0,0-.07.28.47.47,0,0,0,.48.5h2.12v1C46.66,34.64,46.89,34.87,47.38,34.87Z"></path><path class="cls-2" d="M52.82,28.07l-3.19,6.55a.42.42,0,0,0,0,.18.51.51,0,0,0,.52.49.46.46,0,0,0,.42-.23l3.2-6.55a.41.41,0,0,0,0-.18.53.53,0,0,0-.55-.49A.41.41,0,0,0,52.82,28.07Z"></path><path class="cls-2" d="M55.26,30.51c.4,0,.73-.21.73-.45v-.6h1.6v.62L55.36,34a.48.48,0,0,0-.06.24c0,.43.48.73.91.73a.42.42,0,0,0,.41-.2l2.13-4.07a2.35,2.35,0,0,0,.29-.87V28.65c0-.2-.31-.45-.63-.45H55.18c-.32,0-.63.22-.63.45v1.41C54.55,30.31,54.87,30.51,55.26,30.51Z"></path><path class="cls-2" d="M45.3,47.82a1.92,1.92,0,0,0-2.71,0l-4.26,4.26A24.54,24.54,0,0,1,33.52,49a.7.7,0,0,0-.9,1.06,27.12,27.12,0,0,0,5.53,3.53.7.7,0,0,0,.81-.13l2.29-2.29,7.55,7.55C46.36,60.77,42.9,61.5,39,60.73c-4.41-.87-9.08-3.58-13.14-7.65s-6.78-8.73-7.65-13.14c-.77-3.92,0-7.38,2.05-9.81l7.55,7.55L25.51,40a.7.7,0,0,0-.13.81,25.83,25.83,0,0,0,5.31,7.45.7.7,0,0,0,1-1,23.67,23.67,0,0,1-4.82-6.66l4.26-4.26a1.92,1.92,0,0,0,0-2.71L24.28,26.8a1.92,1.92,0,0,0-2.71,0l-1.84,1.84c-2.79,2.79-3.83,6.91-2.91,11.58s3.77,9.6,8,13.86,9.18,7.11,13.86,8a16.74,16.74,0,0,0,3.23.33,11.49,11.49,0,0,0,8.34-3.23l1.83-1.83a1.92,1.92,0,0,0,0-2.71Zm-22.75-20a.53.53,0,0,1,.74,0l6.83,6.83a.53.53,0,0,1,0,.74L28.78,36.7l-7.57-7.57ZM51.14,56.37,49.8,57.71l-7.57-7.57,1.34-1.34a.53.53,0,0,1,.74,0l6.83,6.83A.53.53,0,0,1,51.14,56.37Z"></path></svg>