<svg xmlns="http://www.w3.org/2000/svg" xmlns:xlink="http://www.w3.org/1999/xlink" width="500" viewBox="0 0 375 374.999991" height="500" preserveAspectRatio="xMidYMid meet"><defs><clipPath id="cfeb2f4f9c"><path d="M 17.75 17.75 L 357.25 17.75 L 357.25 357.25 L 17.75 357.25 Z M 17.75 17.75 " clip-rule="nonzero"></path></clipPath><clipPath id="c10fb9bd09"><path d="M 187.5 17.75 C 93.75 17.75 17.75 93.75 17.75 187.5 C 17.75 281.25 93.75 357.25 187.5 357.25 C 281.25 357.25 357.25 281.25 357.25 187.5 C 357.25 93.75 281.25 17.75 187.5 17.75 Z M 187.5 17.75 " clip-rule="nonzero"></path></clipPath><clipPath id="a381b8ebda"><path d="M 96.523438 102 L 274 102 L 274 278.953125 L 96.523438 278.953125 Z M 96.523438 102 " clip-rule="nonzero"></path></clipPath><clipPath id="c4b5c1e516"><path d="M 96.523438 191 L 184 191 L 184 278.953125 L 96.523438 278.953125 Z M 96.523438 191 " clip-rule="nonzero"></path></clipPath></defs><g clip-path="url(#cfeb2f4f9c)"><g clip-path="url(#c10fb9bd09)"><path fill="#e6e6e6" d="M 17.75 17.75 L 357.25 17.75 L 357.25 357.25 L 17.75 357.25 Z M 17.75 17.75 " fill-opacity="1" fill-rule="nonzero"></path></g></g><path fill="#ce192d" d="M 234.105469 160.476562 C 233.371094 160.476562 232.640625 160.433594 231.914062 160.351562 C 231.183594 160.265625 230.464844 160.140625 229.75 159.972656 C 229.035156 159.808594 228.335938 159.601562 227.644531 159.355469 C 226.953125 159.105469 226.28125 158.820312 225.621094 158.496094 C 224.964844 158.171875 224.328125 157.8125 223.710938 157.414062 C 223.097656 157.019531 222.503906 156.585938 221.9375 156.121094 C 221.371094 155.65625 220.832031 155.160156 220.324219 154.632812 C 219.8125 154.105469 219.335938 153.554688 218.890625 152.972656 C 218.441406 152.390625 218.03125 151.785156 217.652344 151.15625 C 217.277344 150.527344 216.9375 149.878906 216.636719 149.210938 C 216.332031 148.542969 216.070312 147.859375 215.84375 147.164062 C 215.621094 146.464844 215.4375 145.757812 215.292969 145.039062 C 215.152344 144.316406 215.050781 143.59375 214.988281 142.863281 C 214.929688 142.132812 214.910156 141.402344 214.9375 140.667969 C 214.960938 139.933594 215.023438 139.207031 215.132812 138.480469 C 215.242188 137.753906 215.390625 137.039062 215.578125 136.332031 C 215.769531 135.621094 216 134.929688 216.265625 134.246094 C 216.535156 133.5625 216.84375 132.898438 217.191406 132.253906 C 217.535156 131.605469 217.917969 130.984375 218.335938 130.378906 C 218.75 129.777344 219.203125 129.199219 219.683594 128.648438 C 220.167969 128.097656 220.683594 127.574219 221.226562 127.082031 C 221.769531 126.589844 222.335938 126.132812 222.933594 125.703125 C 223.53125 125.277344 224.148438 124.886719 224.789062 124.53125 C 225.429688 124.175781 226.089844 123.855469 226.765625 123.574219 C 227.441406 123.292969 228.132812 123.054688 228.839844 122.851562 C 229.542969 122.652344 230.257812 122.492188 230.980469 122.371094 C 231.703125 122.25 232.433594 122.175781 233.164062 122.136719 C 233.898438 122.101562 234.628906 122.109375 235.359375 122.15625 C 236.089844 122.203125 236.816406 122.292969 237.539062 122.425781 C 238.261719 122.554688 238.972656 122.726562 239.671875 122.941406 C 240.375 123.152344 241.0625 123.40625 241.734375 123.699219 C 242.40625 123.988281 243.0625 124.316406 243.695312 124.683594 C 244.332031 125.050781 244.941406 125.453125 245.53125 125.890625 C 246.121094 126.328125 246.683594 126.796875 247.21875 127.296875 C 247.753906 127.796875 248.257812 128.328125 248.730469 128.886719 C 249.207031 129.445312 249.644531 130.03125 250.054688 130.640625 C 250.460938 131.25 250.832031 131.878906 251.167969 132.53125 C 251.5 133.183594 251.796875 133.851562 252.054688 134.539062 C 252.316406 135.226562 252.53125 135.925781 252.710938 136.636719 C 252.890625 137.347656 253.027344 138.066406 253.121094 138.792969 C 253.21875 139.519531 253.269531 140.25 253.28125 140.980469 C 253.296875 141.714844 253.265625 142.445312 253.191406 143.175781 C 253.121094 143.90625 253.007812 144.628906 252.851562 145.34375 C 252.699219 146.0625 252.503906 146.765625 252.269531 147.460938 C 252.03125 148.15625 251.757812 148.832031 251.445312 149.496094 C 251.128906 150.160156 250.78125 150.800781 250.394531 151.425781 C 250.007812 152.046875 249.585938 152.644531 249.128906 153.21875 C 248.671875 153.792969 248.1875 154.339844 247.667969 154.859375 C 246.777344 155.75 245.8125 156.546875 244.765625 157.25 C 243.71875 157.949219 242.613281 158.542969 241.449219 159.023438 C 240.285156 159.507812 239.085938 159.871094 237.847656 160.113281 C 236.613281 160.359375 235.367188 160.480469 234.105469 160.476562 Z M 234.105469 127.625 C 233.546875 127.625 232.988281 127.660156 232.433594 127.726562 C 231.875 127.796875 231.328125 127.898438 230.785156 128.035156 C 230.242188 128.167969 229.707031 128.339844 229.183594 128.539062 C 228.664062 128.742188 228.15625 128.972656 227.660156 129.238281 C 227.167969 129.503906 226.691406 129.796875 226.234375 130.117188 C 225.777344 130.441406 225.339844 130.789062 224.925781 131.164062 C 224.507812 131.542969 224.117188 131.941406 223.753906 132.367188 C 223.386719 132.789062 223.050781 133.234375 222.738281 133.699219 C 222.425781 134.164062 222.144531 134.648438 221.894531 135.148438 C 221.640625 135.648438 221.421875 136.164062 221.234375 136.691406 C 221.042969 137.21875 220.886719 137.753906 220.765625 138.300781 C 220.644531 138.847656 220.554688 139.398438 220.5 139.957031 C 220.445312 140.511719 220.425781 141.070312 220.4375 141.632812 C 220.453125 142.191406 220.5 142.746094 220.582031 143.300781 C 220.664062 143.855469 220.78125 144.402344 220.929688 144.941406 C 221.078125 145.480469 221.261719 146.011719 221.472656 146.527344 C 221.6875 147.042969 221.933594 147.546875 222.210938 148.035156 C 222.484375 148.519531 222.789062 148.988281 223.125 149.441406 C 223.457031 149.890625 223.816406 150.316406 224.203125 150.722656 C 224.589844 151.128906 225 151.507812 225.433594 151.863281 C 225.863281 152.21875 226.316406 152.546875 226.792969 152.847656 C 227.265625 153.144531 227.753906 153.414062 228.261719 153.65625 C 228.765625 153.894531 229.285156 154.101562 229.816406 154.277344 C 230.347656 154.453125 230.890625 154.59375 231.4375 154.703125 C 231.988281 154.8125 232.542969 154.890625 233.101562 154.929688 C 233.65625 154.972656 234.21875 154.976562 234.777344 154.949219 C 235.335938 154.921875 235.890625 154.863281 236.441406 154.765625 C 236.996094 154.671875 237.539062 154.539062 238.074219 154.378906 C 238.609375 154.214844 239.132812 154.019531 239.644531 153.792969 C 240.15625 153.566406 240.652344 153.308594 241.132812 153.023438 C 241.613281 152.734375 242.074219 152.417969 242.515625 152.074219 C 242.957031 151.730469 243.375 151.359375 243.773438 150.960938 C 244.730469 150.007812 245.523438 148.933594 246.164062 147.738281 C 246.800781 146.546875 247.25 145.289062 247.515625 143.960938 C 247.777344 142.636719 247.84375 141.300781 247.710938 139.957031 C 247.578125 138.609375 247.253906 137.3125 246.734375 136.0625 C 246.21875 134.816406 245.53125 133.667969 244.671875 132.621094 C 243.816406 131.578125 242.824219 130.679688 241.699219 129.929688 C 240.578125 129.175781 239.367188 128.605469 238.074219 128.210938 C 236.78125 127.820312 235.457031 127.625 234.105469 127.625 Z M 234.105469 127.625 " fill-opacity="1" fill-rule="nonzero"></path><g clip-path="url(#a381b8ebda)"><path fill="#ce192d" d="M 99.5 278.996094 C 99.132812 278.996094 98.777344 278.925781 98.441406 278.785156 C 98.101562 278.644531 97.800781 278.441406 97.542969 278.183594 C 97.285156 277.921875 97.085938 277.621094 96.949219 277.28125 C 96.808594 276.941406 96.742188 276.589844 96.746094 276.222656 L 96.941406 250.660156 C 96.949219 249.429688 97.1875 248.25 97.664062 247.113281 C 98.136719 245.980469 98.808594 244.980469 99.679688 244.113281 L 170.453125 173.339844 C 169.914062 171.863281 169.441406 170.359375 169.03125 168.839844 C 168.625 167.316406 168.289062 165.777344 168.015625 164.226562 C 167.746094 162.675781 167.546875 161.113281 167.417969 159.542969 C 167.285156 157.972656 167.226562 156.398438 167.234375 154.824219 C 167.246094 153.25 167.324219 151.675781 167.472656 150.109375 C 167.625 148.539062 167.84375 146.980469 168.132812 145.433594 C 168.421875 143.882812 168.777344 142.351562 169.203125 140.832031 C 169.628906 139.316406 170.121094 137.820312 170.679688 136.347656 C 171.238281 134.875 171.863281 133.429688 172.550781 132.011719 C 173.238281 130.59375 173.988281 129.210938 174.796875 127.859375 C 175.609375 126.507812 176.476562 125.195312 177.40625 123.921875 C 178.335938 122.648438 179.316406 121.417969 180.355469 120.234375 C 181.394531 119.046875 182.480469 117.910156 183.621094 116.824219 C 184.757812 115.734375 185.945312 114.699219 187.175781 113.714844 C 188.40625 112.734375 189.679688 111.804688 190.996094 110.9375 C 192.308594 110.066406 193.660156 109.257812 195.046875 108.507812 C 196.429688 107.761719 197.847656 107.074219 199.296875 106.453125 C 200.742188 105.828125 202.214844 105.273438 203.710938 104.78125 C 205.210938 104.289062 206.726562 103.867188 208.261719 103.507812 C 209.792969 103.152344 211.34375 102.867188 212.902344 102.648438 C 214.464844 102.429688 216.03125 102.28125 217.605469 102.203125 C 219.175781 102.125 220.75 102.117188 222.324219 102.179688 C 223.902344 102.238281 225.46875 102.371094 227.03125 102.574219 C 228.59375 102.773438 230.144531 103.046875 231.683594 103.386719 C 233.222656 103.726562 234.742188 104.132812 236.246094 104.609375 C 237.746094 105.085938 239.222656 105.625 240.679688 106.234375 C 242.132812 106.839844 243.554688 107.511719 244.949219 108.246094 C 246.34375 108.980469 247.703125 109.777344 249.027344 110.632812 C 250.347656 111.488281 251.632812 112.398438 252.875 113.371094 C 254.113281 114.339844 255.3125 115.363281 256.460938 116.4375 C 257.613281 117.515625 258.710938 118.640625 259.761719 119.816406 C 260.8125 120.988281 261.808594 122.210938 262.75 123.472656 C 263.691406 124.734375 264.574219 126.039062 265.398438 127.378906 C 266.226562 128.722656 266.988281 130.097656 267.691406 131.507812 C 268.394531 132.917969 269.035156 134.359375 269.609375 135.824219 C 270.183594 137.292969 270.691406 138.78125 271.132812 140.296875 C 271.574219 141.808594 271.945312 143.335938 272.25 144.882812 C 272.554688 146.429688 272.792969 147.984375 272.957031 149.550781 C 273.125 151.117188 273.21875 152.691406 273.246094 154.265625 C 273.273438 155.839844 273.230469 157.414062 273.113281 158.984375 C 273 160.558594 272.816406 162.121094 272.5625 163.675781 C 272.308594 165.230469 271.988281 166.769531 271.597656 168.296875 C 271.207031 169.824219 270.746094 171.328125 270.222656 172.816406 C 269.699219 174.300781 269.109375 175.761719 268.453125 177.191406 C 267.796875 178.625 267.078125 180.027344 266.300781 181.394531 C 265.519531 182.765625 264.679688 184.097656 263.78125 185.390625 C 262.882812 186.683594 261.925781 187.9375 260.917969 189.144531 C 259.90625 190.355469 258.84375 191.515625 257.730469 192.628906 C 255.953125 194.40625 254.058594 196.046875 252.050781 197.554688 C 250.039062 199.0625 247.933594 200.421875 245.730469 201.628906 C 243.527344 202.835938 241.25 203.882812 238.898438 204.769531 C 236.546875 205.652344 234.144531 206.367188 231.691406 206.910156 C 229.238281 207.453125 226.757812 207.816406 224.253906 208.007812 C 221.75 208.199219 219.242188 208.210938 216.734375 208.046875 C 214.226562 207.878906 211.746094 207.535156 209.289062 207.019531 C 206.828125 206.5 204.421875 205.808594 202.058594 204.945312 L 185.496094 221.507812 C 184.960938 222.046875 184.3125 222.316406 183.550781 222.316406 L 174.742188 222.316406 L 174.742188 231.121094 C 174.742188 231.882812 174.472656 232.53125 173.9375 233.070312 L 164.5625 242.445312 C 164.023438 242.984375 163.375 243.253906 162.613281 243.253906 L 153.808594 243.253906 L 153.808594 252.058594 C 153.808594 252.820312 153.539062 253.46875 153 254.007812 L 143.625 263.382812 C 143.085938 263.921875 142.4375 264.191406 141.675781 264.191406 L 132.871094 264.191406 L 132.871094 272.996094 C 132.871094 273.757812 132.601562 274.40625 132.0625 274.945312 L 131.253906 275.753906 C 130.398438 276.609375 129.417969 277.277344 128.304688 277.75 C 127.191406 278.222656 126.03125 278.472656 124.824219 278.492188 L 99.554688 278.996094 Z M 220.25 107.65625 C 219.28125 107.65625 218.316406 107.6875 217.347656 107.746094 C 216.382812 107.804688 215.417969 107.894531 214.460938 108.011719 C 213.5 108.128906 212.542969 108.277344 211.589844 108.453125 C 210.640625 108.628906 209.695312 108.835938 208.753906 109.070312 C 207.816406 109.304688 206.882812 109.566406 205.960938 109.859375 C 205.039062 110.148438 204.125 110.46875 203.222656 110.816406 C 202.316406 111.164062 201.425781 111.535156 200.542969 111.9375 C 199.664062 112.339844 198.796875 112.769531 197.941406 113.222656 C 197.085938 113.675781 196.246094 114.15625 195.421875 114.664062 C 194.597656 115.171875 193.789062 115.699219 192.996094 116.257812 C 192.203125 116.8125 191.429688 117.390625 190.671875 117.992188 C 189.914062 118.597656 189.175781 119.222656 188.457031 119.871094 C 187.738281 120.515625 187.039062 121.1875 186.359375 121.878906 C 185.683594 122.566406 185.023438 123.277344 184.390625 124.007812 C 183.753906 124.738281 183.144531 125.488281 182.554688 126.257812 C 181.964844 127.027344 181.402344 127.8125 180.859375 128.613281 C 180.320312 129.417969 179.804688 130.234375 179.3125 131.070312 C 178.820312 131.902344 178.355469 132.75 177.917969 133.613281 C 177.476562 134.476562 177.066406 135.351562 176.679688 136.238281 C 176.292969 137.128906 175.9375 138.027344 175.605469 138.9375 C 175.277344 139.847656 174.972656 140.765625 174.699219 141.691406 C 174.425781 142.621094 174.179688 143.558594 173.960938 144.5 C 173.742188 145.445312 173.554688 146.390625 173.394531 147.347656 C 173.238281 148.300781 173.105469 149.261719 173.007812 150.222656 C 172.90625 151.1875 172.835938 152.152344 172.792969 153.117188 C 172.75 154.085938 172.738281 155.050781 172.757812 156.019531 C 172.773438 156.988281 172.820312 157.953125 172.898438 158.917969 C 172.972656 159.882812 173.078125 160.847656 173.214844 161.804688 C 173.351562 162.761719 173.515625 163.714844 173.707031 164.664062 C 173.902344 165.613281 174.125 166.554688 174.375 167.488281 C 174.625 168.425781 174.90625 169.351562 175.214844 170.269531 C 175.523438 171.1875 175.855469 172.09375 176.21875 172.992188 C 176.425781 173.503906 176.476562 174.03125 176.367188 174.570312 C 176.257812 175.113281 176.003906 175.578125 175.613281 175.972656 L 103.574219 248.007812 C 102.832031 248.75 102.457031 249.648438 102.449219 250.699219 L 102.273438 273.433594 L 124.714844 272.984375 C 125.746094 272.964844 126.628906 272.589844 127.359375 271.859375 L 127.363281 271.855469 L 127.363281 261.433594 C 127.363281 261.070312 127.433594 260.71875 127.574219 260.378906 C 127.710938 260.042969 127.910156 259.746094 128.167969 259.488281 C 128.429688 259.230469 128.726562 259.03125 129.0625 258.890625 C 129.402344 258.75 129.753906 258.679688 130.117188 258.679688 L 140.539062 258.679688 L 148.300781 250.917969 L 148.300781 240.5 C 148.300781 240.132812 148.371094 239.78125 148.507812 239.445312 C 148.648438 239.105469 148.847656 238.808594 149.105469 238.550781 C 149.363281 238.292969 149.664062 238.09375 150 237.953125 C 150.335938 237.8125 150.6875 237.742188 151.054688 237.742188 L 161.472656 237.742188 L 169.234375 229.980469 L 169.234375 219.5625 C 169.234375 219.195312 169.304688 218.84375 169.445312 218.507812 C 169.585938 218.171875 169.785156 217.871094 170.042969 217.613281 C 170.300781 217.355469 170.597656 217.15625 170.9375 217.015625 C 171.273438 216.878906 171.625 216.808594 171.988281 216.808594 L 182.410156 216.808594 L 199.429688 199.785156 C 199.820312 199.394531 200.289062 199.144531 200.832031 199.035156 C 201.371094 198.925781 201.898438 198.972656 202.410156 199.179688 C 204.5625 200.050781 206.765625 200.761719 209.019531 201.308594 C 211.273438 201.855469 213.558594 202.238281 215.867188 202.449219 C 218.179688 202.664062 220.492188 202.707031 222.808594 202.582031 C 225.128906 202.457031 227.421875 202.164062 229.695312 201.699219 C 231.96875 201.238281 234.199219 200.613281 236.382812 199.824219 C 238.5625 199.035156 240.675781 198.09375 242.722656 196.996094 C 244.765625 195.898438 246.71875 194.65625 248.582031 193.273438 C 250.441406 191.886719 252.195312 190.375 253.835938 188.734375 L 255.78125 190.679688 L 253.835938 188.734375 C 255.488281 187.082031 257.007812 185.320312 258.398438 183.441406 C 259.789062 181.566406 261.035156 179.597656 262.136719 177.539062 C 263.238281 175.480469 264.183594 173.347656 264.96875 171.152344 C 265.757812 168.953125 266.378906 166.707031 266.832031 164.414062 C 267.289062 162.125 267.574219 159.8125 267.6875 157.480469 C 267.804688 155.148438 267.746094 152.820312 267.515625 150.496094 C 267.289062 148.171875 266.890625 145.875 266.324219 143.609375 C 265.753906 141.34375 265.023438 139.132812 264.128906 136.976562 C 263.238281 134.816406 262.191406 132.738281 260.988281 130.734375 C 259.789062 128.730469 258.445312 126.824219 256.964844 125.019531 C 255.484375 123.214844 253.878906 121.527344 252.148438 119.960938 C 250.417969 118.390625 248.582031 116.957031 246.636719 115.660156 C 244.695312 114.363281 242.667969 113.214844 240.558594 112.214844 C 238.445312 111.21875 236.273438 110.378906 234.039062 109.699219 C 231.804688 109.023438 229.53125 108.511719 227.21875 108.167969 C 224.910156 107.828125 222.585938 107.65625 220.25 107.65625 Z M 220.25 107.65625 " fill-opacity="1" fill-rule="nonzero"></path></g><g clip-path="url(#c4b5c1e516)"><path fill="#ce192d" d="M 99.5 278.996094 C 98.941406 278.996094 98.433594 278.84375 97.96875 278.53125 C 97.503906 278.222656 97.167969 277.8125 96.953125 277.296875 C 96.742188 276.78125 96.6875 276.25 96.796875 275.707031 C 96.90625 275.160156 97.15625 274.6875 97.550781 274.296875 L 179.273438 192.574219 C 179.53125 192.316406 179.828125 192.121094 180.167969 191.980469 C 180.503906 191.84375 180.855469 191.773438 181.21875 191.773438 C 181.582031 191.777344 181.933594 191.847656 182.269531 191.984375 C 182.605469 192.125 182.902344 192.324219 183.160156 192.582031 C 183.417969 192.839844 183.617188 193.136719 183.753906 193.472656 C 183.894531 193.808594 183.964844 194.160156 183.964844 194.523438 C 183.96875 194.886719 183.898438 195.238281 183.761719 195.574219 C 183.621094 195.910156 183.425781 196.210938 183.167969 196.46875 L 101.445312 278.191406 C 100.910156 278.730469 100.261719 278.996094 99.5 278.996094 Z M 99.5 278.996094 " fill-opacity="1" fill-rule="nonzero"></path></g></svg>