<svg xmlns="http://www.w3.org/2000/svg" id="Layer_1" data-name="Layer 1" viewBox="0 0 80 80"><defs><style>.cls-1{fill:#e6e6e6;}.cls-2{fill:#cd192d;}</style></defs><title>iconos-triumph</title><circle class="cls-1" cx="40" cy="40" r="39.03"></circle><path class="cls-2" d="M25.81,53a.88.88,0,0,0,.7-.35c.08-.1,1.9-2.49,3.76-5.42,2.55-4,3.85-7,3.85-8.91a8.31,8.31,0,0,0-16.62,0c0,1.87,1.3,4.87,3.85,8.91,1.86,2.94,3.68,5.32,3.76,5.42A.88.88,0,0,0,25.81,53ZM19.27,38.35a6.54,6.54,0,0,1,13.08,0c0,2.8-4.22,9.15-6.54,12.32C23.49,47.5,19.27,41.15,19.27,38.35Z"></path><path class="cls-2" d="M30.87,38.35a5.06,5.06,0,1,0-5.06,5.06A5.06,5.06,0,0,0,30.87,38.35Zm-5.06,3.29a3.29,3.29,0,1,1,3.29-3.29A3.29,3.29,0,0,1,25.81,41.64Z"></path><path class="cls-2" d="M50.12,41.45h-6a6.61,6.61,0,0,1,0-13.23h.64a.88.88,0,0,0,0-1.77h-.64a8.38,8.38,0,0,0,0,16.76h6a6.61,6.61,0,0,1,0,13.23H28.53a2.86,2.86,0,1,0,0,1.77H50.12a8.38,8.38,0,0,0,0-16.76Zm-24.31,17a1.1,1.1,0,1,1,1.1-1.1A1.1,1.1,0,0,1,25.81,58.43Z"></path><path class="cls-2" d="M48.09,28.23h2.45a.88.88,0,0,0,0-1.77H48.09a.88.88,0,0,0,0,1.77Z"></path><path class="cls-2" d="M50.45,21.44h4.3v3.18a2.86,2.86,0,1,0,1.77,0V16.69a.88.88,0,0,0-.88-.88H50.45a.88.88,0,0,0-.88.88v3.87A.88.88,0,0,0,50.45,21.44Zm5.19,4.81a1.1,1.1,0,1,1-1.1,1.1A1.1,1.1,0,0,1,55.64,26.25Zm-4.3-8.68h3.42v2.1H51.33Z"></path></svg>