<svg xmlns="http://www.w3.org/2000/svg" id="Layer_1" data-name="Layer 1" viewBox="0 0 80 80"><defs><style>.cls-1{fill:#e6e6e6;}.cls-2{fill:#cd192d;}</style></defs><title>iconos-triumph</title><circle class="cls-1" cx="40" cy="40" r="39.03"></circle><path class="cls-2" d="M48.13,52h0v0h0v0l-1.76-3.52-.44-.89L44.14,42v0a2.62,2.62,0,0,0-2.44-1.69H30.33v1.49H41.69a1.12,1.12,0,0,1,1,.71L44.18,47H23.91l1.46-4.5a1.12,1.12,0,0,1,1-.71h2.43V40.32H26.41A2.62,2.62,0,0,0,24,42v0L22.2,47.48l-.44.89L20,51.89v0h0v0h0a.74.74,0,0,0-.05.28v5a1.67,1.67,0,0,0,.74,1.39v1.58a1.68,1.68,0,0,0,1.67,1.67h3.35a1.68,1.68,0,0,0,1.67-1.67v-1.3H40.74v1.3a1.68,1.68,0,0,0,1.67,1.67h3.35a1.68,1.68,0,0,0,1.67-1.67V58.64a1.67,1.67,0,0,0,.74-1.39v-5A.74.74,0,0,0,48.13,52ZM46.7,57.25a.19.19,0,0,1-.19.19H41.95l.94-1.89a.74.74,0,0,0,.08-.31h0v0h0v-.74h1.49a.74.74,0,0,0,.33-.08l1.9-.95Zm-25.29,0V53.43l1.9.95a.74.74,0,0,0,.33.08h1.49v.74h0v0h0a.74.74,0,0,0,.08.31l.94,1.89H21.59A.19.19,0,0,1,21.4,57.25ZM26.61,54,27.66,53h2.67a3,3,0,0,0,.4,1.49H26.61ZM31.82,53a1.49,1.49,0,0,1,1.49-1.49h1.49a1.49,1.49,0,0,1,0,3H33.31A1.49,1.49,0,0,1,31.82,53Zm6,0h2.67L41.49,54v.44H37.37A3,3,0,0,0,37.77,53Zm8.67-1.08L44.29,53H42.54l-.65-.65,3.51-2.51Zm-1.77-3.39-4.17,3H37.37A3,3,0,0,0,34.79,50H33.31a3,3,0,0,0-2.58,1.49H27.59l-4.17-3Zm-22,1.31,3.51,2.51-.65.65H23.81l-2.15-1.08Zm3.17,10.41a.19.19,0,0,1-.19.19H22.33a.19.19,0,0,1-.19-.19v-1.3h3.72Zm1.95-2.79-.74-1.49H41l-.74,1.49ZM46,60.22a.19.19,0,0,1-.19.19H42.42a.19.19,0,0,1-.19-.19v-1.3H46Z"></path><path class="cls-2" d="M58.41,48.51h-.56v-3h1.49V44H50.41v1.49H51.9v3h-.56a1.68,1.68,0,0,0-1.67,1.67v10a1.68,1.68,0,0,0,1.67,1.67h7.07a1.68,1.68,0,0,0,1.67-1.67v-10A1.68,1.68,0,0,0,58.41,48.51Zm-5-3h3v3h-3Zm-2,4.46h7.07a.19.19,0,0,1,.19.19v4l-7.44-2.48V50.18A.19.19,0,0,1,51.34,50Zm7.25,7.15-7.44-2.48V53.26l7.44,2.48Zm-.19,3.26H51.34a.19.19,0,0,1-.19-.19v-4l7.44,2.48v1.51A.19.19,0,0,1,58.41,60.41Z"></path><path class="cls-2" d="M31.1,33.83a.74.74,0,0,0,.72.54H46a.74.74,0,0,0,.3-.06l3.3-1.46.11-.06a1.67,1.67,0,0,0,0-2.79l-.13-.07-2.77-1.12a2.59,2.59,0,0,0-1.38-.39H43.87l-5.7-3.6a.74.74,0,0,0-.4-.12H35.54a.74.74,0,0,0-.67,1.08l1.82,3.63L35,29.84l-2.69-2a.74.74,0,0,0-.45-.15H30.33a.74.74,0,0,0-.72.95Zm.47-4.67,2.78,2.08a.74.74,0,0,0,.63.13l3-.74a.74.74,0,0,0,.48-1.05l-1.69-3.39h.81l5.7,3.6a.74.74,0,0,0,.4.12h1.74a1.11,1.11,0,0,1,.62.19l.13.07,2.74,1.11a.19.19,0,0,1,0,.25L45.8,32.88H32.38l-1.06-3.72Z"></path><path class="cls-2" d="M28.28,38.09H51.72a1.68,1.68,0,0,0,1.67-1.67v-8H51.9v8a.19.19,0,0,1-.19.19H28.28a.19.19,0,0,1-.19-.19V22.66a.19.19,0,0,1,.19-.19H51.72a.19.19,0,0,1,.19.19v4.28h1.49V22.66A1.68,1.68,0,0,0,51.72,21h-1.3V17.26H48.93V21H31.07V17.26H29.59V21h-1.3a1.68,1.68,0,0,0-1.67,1.67V36.42A1.68,1.68,0,0,0,28.28,38.09Z"></path><rect class="cls-2" x="29.59" y="23.96" width="1.49" height="1.49"></rect><rect class="cls-2" x="48.93" y="23.96" width="1.49" height="1.49"></rect></svg>