<svg xmlns="http://www.w3.org/2000/svg" xmlns:xlink="http://www.w3.org/1999/xlink" width="500" viewBox="0 0 375 374.999991" height="500" preserveAspectRatio="xMidYMid meet"><defs><clipPath id="920a3a3621"><path d="M 17.75 17.75 L 357.25 17.75 L 357.25 357.25 L 17.75 357.25 Z M 17.75 17.75 " clip-rule="nonzero"></path></clipPath><clipPath id="ff13b9a639"><path d="M 187.5 17.75 C 93.75 17.75 17.75 93.75 17.75 187.5 C 17.75 281.25 93.75 357.25 187.5 357.25 C 281.25 357.25 357.25 281.25 357.25 187.5 C 357.25 93.75 281.25 17.75 187.5 17.75 Z M 187.5 17.75 " clip-rule="nonzero"></path></clipPath><clipPath id="1dc8149e48"><path d="M 52.496094 98.183594 L 322.425781 98.183594 L 322.425781 276.683594 L 52.496094 276.683594 Z M 52.496094 98.183594 " clip-rule="nonzero"></path></clipPath></defs><g clip-path="url(#920a3a3621)"><g clip-path="url(#ff13b9a639)"><path fill="#e6e6e6" d="M 17.75 17.75 L 357.25 17.75 L 357.25 357.25 L 17.75 357.25 Z M 17.75 17.75 " fill-opacity="1" fill-rule="nonzero"></path></g></g><g clip-path="url(#1dc8149e48)"><path fill="#ce192d" d="M 283.023438 272.613281 C 263.574219 272.613281 247.753906 256.789062 247.753906 237.339844 C 247.753906 225.945312 253.191406 215.800781 261.601562 209.347656 L 264.109375 214.289062 C 257.445312 219.765625 253.191406 228.066406 253.191406 237.339844 C 253.191406 253.792969 266.574219 267.175781 283.023438 267.175781 C 299.476562 267.175781 312.859375 253.792969 312.859375 237.339844 C 312.859375 220.890625 299.476562 207.507812 283.023438 207.507812 C 280.773438 207.507812 278.589844 207.78125 276.476562 208.253906 L 273.945312 203.261719 C 276.84375 202.488281 279.886719 202.070312 283.023438 202.070312 C 302.472656 202.070312 318.296875 217.894531 318.296875 237.339844 C 318.296875 256.789062 302.472656 272.613281 283.023438 272.613281 Z M 276.832031 237.339844 C 276.832031 233.925781 279.609375 231.144531 283.023438 231.144531 C 286.441406 231.144531 289.21875 233.925781 289.21875 237.339844 C 289.21875 240.757812 286.441406 243.535156 283.023438 243.535156 C 279.609375 243.535156 276.832031 240.757812 276.832031 237.339844 Z M 283.023438 247.734375 C 288.753906 247.734375 293.414062 243.074219 293.414062 237.339844 C 293.414062 232.71875 290.382812 228.796875 286.203125 227.449219 L 278.445312 212.136719 C 279.933594 211.867188 281.457031 211.703125 283.023438 211.703125 C 297.160156 211.703125 308.660156 223.203125 308.660156 237.339844 C 308.660156 251.480469 297.160156 262.980469 283.023438 262.980469 C 268.886719 262.980469 257.386719 251.480469 257.386719 237.339844 C 257.386719 229.707031 260.757812 222.863281 266.070312 218.160156 L 273.59375 233.007812 C 272.984375 234.328125 272.632812 235.792969 272.632812 237.339844 C 272.632812 243.074219 277.292969 247.734375 283.023438 247.734375 Z M 239.621094 156.675781 L 244.40625 154.25 L 281.320312 227.101562 C 279.484375 227.40625 277.804688 228.183594 276.429688 229.320312 Z M 168.304688 200.460938 L 167.210938 212.335938 C 167.164062 212.820312 166.417969 213.359375 165.414062 213.359375 L 153.398438 213.359375 C 152.484375 213.359375 151.8125 212.910156 151.644531 212.488281 L 146.902344 200.617188 C 146.847656 200.484375 146.816406 200.316406 146.980469 200.074219 C 147.203125 199.742188 147.777344 199.351562 148.65625 199.351562 L 166.511719 199.351562 C 167.273438 199.351562 167.828125 199.660156 168.089844 199.949219 C 168.246094 200.121094 168.320312 200.292969 168.304688 200.460938 Z M 215.730469 199.019531 L 214.394531 203.101562 C 214.390625 203.101562 214.390625 203.105469 214.390625 203.105469 L 210.945312 213.609375 C 210.570312 214.75 209.113281 215.574219 207.480469 215.574219 L 199.464844 215.574219 C 197.65625 215.574219 196.105469 214.578125 195.929688 213.304688 L 194.976562 206.332031 C 194.976562 206.316406 194.972656 206.296875 194.96875 206.28125 L 193.949219 198.804688 C 193.898438 198.429688 194.023438 198.066406 194.320312 197.722656 C 194.851562 197.117188 195.757812 196.757812 196.746094 196.757812 L 212.980469 196.757812 C 214.261719 196.757812 215.128906 197.324219 215.515625 197.859375 C 215.789062 198.234375 215.859375 198.625 215.730469 199.019531 Z M 225.664062 243.542969 L 216.324219 243.570312 L 223.84375 222.941406 C 227.300781 213.441406 227.449219 207.171875 224.300781 203.773438 C 222.828125 202.175781 220.957031 201.617188 219.34375 201.472656 L 219.71875 200.332031 C 220.265625 198.65625 219.972656 196.859375 218.914062 195.398438 C 217.628906 193.621094 215.410156 192.558594 212.980469 192.558594 L 196.746094 192.558594 C 194.527344 192.558594 192.492188 193.433594 191.160156 194.960938 C 190.058594 196.222656 189.574219 197.789062 189.789062 199.371094 L 190.226562 202.558594 C 186.851562 201.351562 181.191406 200.445312 172.371094 202.070312 L 172.484375 200.847656 C 172.609375 199.496094 172.148438 198.171875 171.191406 197.121094 C 170.050781 195.875 168.347656 195.15625 166.511719 195.15625 L 148.65625 195.15625 C 146.515625 195.15625 144.589844 196.113281 143.503906 197.722656 C 142.59375 199.066406 142.410156 200.6875 143.003906 202.171875 L 147.746094 214.046875 C 148.585938 216.144531 150.855469 217.554688 153.398438 217.554688 L 165.414062 217.554688 C 168.566406 217.554688 171.132812 215.476562 171.386719 212.722656 L 171.96875 206.433594 C 183.75 204.03125 189.28125 206.511719 190.902344 207.511719 L 191.773438 213.871094 C 192.230469 217.234375 195.539062 219.773438 199.464844 219.773438 L 207.480469 219.773438 C 210.929688 219.773438 213.992188 217.773438 214.933594 214.917969 L 217.976562 205.640625 C 218.933594 205.574219 220.339844 205.671875 221.226562 206.621094 C 222.109375 207.578125 223.746094 210.9375 219.898438 221.503906 L 211.851562 243.582031 L 154.042969 243.753906 C 145.640625 213.148438 131.769531 196.105469 110.46875 190.183594 C 105.328125 188.753906 100.246094 188.121094 95.445312 188.121094 C 82.921875 188.121094 72.296875 192.425781 67.488281 198.164062 L 58.121094 198.164062 C 68.011719 181.660156 84.257812 181.796875 86.078125 181.863281 C 110.941406 187.523438 129.429688 189.199219 142.613281 189.199219 C 159.21875 189.199219 167.390625 186.546875 169.308594 185.824219 L 224.648438 186.039062 C 225.042969 186.066406 225.433594 186.078125 225.8125 186.078125 C 229.378906 186.078125 232.304688 184.855469 234.527344 182.4375 C 238.441406 178.175781 239.125 171.058594 239.050781 166.058594 C 239.933594 167.195312 240.710938 168.34375 241.402344 169.480469 L 244.226562 175.050781 C 245.371094 177.816406 245.949219 180.039062 246.171875 181.023438 Z M 208.785156 251.996094 C 207.742188 254.816406 204.929688 256.578125 201.996094 256.335938 L 151.804688 250.140625 L 152.015625 249.253906 C 152.132812 248.765625 152.0625 248.277344 151.859375 247.855469 C 152.042969 247.910156 152.234375 247.953125 152.433594 247.953125 C 152.4375 247.953125 152.4375 247.953125 152.441406 247.953125 L 210.320312 247.785156 Z M 76.921875 174.261719 L 81.429688 169.578125 L 110.523438 171.371094 C 113.59375 171.5625 116.847656 172.261719 120.195312 173.453125 C 138.773438 180.058594 157.835938 177.117188 165.292969 174.722656 L 166.554688 182.304688 C 160.574219 184.054688 136.746094 189.101562 86.921875 177.753906 Z M 208.980469 154.09375 C 220.734375 153.007812 228.890625 156.476562 234.507812 161.28125 C 235.058594 165.125 235.5 175.179688 231.433594 179.601562 C 229.859375 181.3125 227.734375 182.046875 224.804688 181.847656 L 170.699219 181.632812 L 169.1875 172.566406 C 185.964844 156.203125 208.730469 154.113281 208.980469 154.09375 Z M 255.402344 156.402344 L 262.636719 150.949219 C 263.421875 150.355469 264.347656 150.0625 265.257812 150.0625 C 266.308594 150.0625 267.332031 150.453125 268.085938 151.226562 C 268.515625 151.664062 269.027344 152.386719 269.027344 153.328125 L 269.027344 166.871094 C 269.027344 168.21875 268.015625 169.121094 267.414062 169.535156 C 267.414062 169.539062 267.414062 169.539062 267.410156 169.539062 C 266.046875 170.484375 264.15625 170.441406 262.707031 169.433594 L 255.621094 164.496094 C 254.304688 163.578125 252.722656 162.175781 252.652344 160.703125 C 252.574219 159.148438 254.15625 157.464844 255.402344 156.402344 Z M 146.863281 252.75 L 75.273438 241.035156 L 68.644531 236.019531 L 69.828125 231.3125 L 78.511719 231.671875 L 147.460938 250.257812 Z M 74.449219 245.152344 L 117.316406 252.167969 C 112.820312 258.085938 105.734375 261.933594 97.746094 261.933594 C 86.917969 261.933594 77.722656 254.890625 74.449219 245.152344 Z M 90.007812 230.425781 L 79.375 227.558594 C 79.226562 227.519531 79.074219 227.496094 78.917969 227.488281 L 75.300781 227.339844 C 79.144531 218.753906 87.75 212.75 97.746094 212.75 C 111.304688 212.75 122.335938 223.78125 122.335938 237.339844 C 122.335938 237.941406 122.289062 238.527344 122.246094 239.117188 L 107.925781 235.253906 Z M 97.746094 272.613281 C 78.296875 272.613281 62.472656 256.789062 62.472656 237.339844 C 62.472656 217.894531 78.296875 202.070312 97.746094 202.070312 C 117.191406 202.070312 133.015625 217.894531 133.015625 237.339844 C 133.015625 238.898438 132.902344 240.429688 132.707031 241.9375 L 126.386719 240.230469 C 126.480469 239.28125 126.53125 238.316406 126.53125 237.339844 C 126.53125 221.46875 113.617188 208.554688 97.746094 208.554688 C 85.460938 208.554688 74.980469 216.300781 70.855469 227.152344 L 68.296875 227.046875 C 67.3125 226.992188 66.417969 227.667969 66.175781 228.632812 L 64.238281 236.34375 C 64.03125 237.160156 64.332031 238.019531 65.003906 238.527344 L 69.339844 241.808594 C 71.496094 255.5625 83.394531 266.128906 97.746094 266.128906 C 107.875 266.128906 116.785156 260.855469 121.914062 252.921875 L 128.800781 254.046875 C 122.835938 265.089844 111.152344 272.613281 97.746094 272.613281 Z M 242.628906 133.992188 L 246.261719 137.015625 L 241.691406 142.507812 L 238.058594 139.488281 Z M 283.023438 197.875 C 279.203125 197.875 275.511719 198.429688 272.015625 199.449219 L 257.589844 170.980469 L 260.304688 172.875 C 261.777344 173.898438 263.488281 174.414062 265.1875 174.414062 C 266.816406 174.414062 268.433594 173.9375 269.804688 172.988281 C 271.976562 171.480469 273.222656 169.25 273.222656 166.871094 L 273.222656 153.328125 C 273.222656 151.488281 272.464844 149.699219 271.085938 148.292969 C 268.207031 145.347656 263.488281 145.046875 260.105469 147.597656 L 252.777344 153.128906 C 251.636719 154.101562 250.722656 155.082031 250.03125 156.066406 L 247.203125 150.480469 C 246.949219 149.984375 246.511719 149.605469 245.984375 149.433594 C 245.453125 149.261719 244.878906 149.304688 244.382812 149.558594 L 241.3125 151.113281 L 237.101562 148.011719 L 239 145.730469 L 240.621094 147.074219 C 241.011719 147.402344 241.488281 147.5625 241.960938 147.5625 C 242.5625 147.5625 243.160156 147.304688 243.574219 146.804688 L 250.828125 138.085938 C 251.1875 137.65625 251.355469 137.105469 251.304688 136.550781 C 251.253906 135.996094 250.984375 135.488281 250.558594 135.128906 L 243.699219 129.425781 C 243.273438 129.070312 242.722656 128.902344 242.167969 128.949219 C 241.613281 129 241.101562 129.269531 240.746094 129.695312 L 233.492188 138.417969 C 233.136719 138.84375 232.964844 139.398438 233.015625 139.949219 C 233.066406 140.503906 233.335938 141.015625 233.761719 141.371094 L 235.773438 143.046875 L 233.714844 145.519531 L 225.867188 139.742188 L 225.867188 118.527344 C 225.867188 116.007812 224.644531 113.632812 222.59375 112.167969 L 217.507812 108.535156 L 217.996094 100.40625 C 218.0625 99.25 217.183594 98.253906 216.023438 98.1875 C 214.878906 98.105469 213.875 99 213.804688 100.15625 L 212.777344 117.355469 C 212.707031 118.511719 213.589844 119.507812 214.746094 119.574219 C 214.789062 119.578125 214.832031 119.578125 214.875 119.578125 C 215.976562 119.578125 216.898438 118.71875 216.964844 117.605469 L 217.214844 113.484375 L 220.15625 115.582031 C 221.101562 116.261719 221.667969 117.359375 221.667969 118.527344 L 221.667969 138.703125 L 202.550781 138.703125 C 201.390625 138.703125 200.453125 139.644531 200.453125 140.804688 C 200.453125 141.960938 201.390625 142.902344 202.550781 142.902344 L 223.078125 142.902344 L 237.121094 153.238281 L 235.851562 153.882812 C 234.953125 154.335938 234.527344 155.34375 234.769531 156.277344 C 228.601562 151.824219 220.152344 148.855469 208.617188 149.914062 C 207.601562 149.996094 183.570312 152.152344 165.625 170.171875 C 163.003906 171.410156 142.832031 177.046875 121.601562 169.5 C 117.882812 168.175781 114.242188 167.398438 110.78125 167.183594 L 80.71875 165.328125 C 80.109375 165.285156 79.503906 165.523438 79.078125 165.96875 L 71.628906 173.710938 C 71.132812 174.226562 70.933594 174.957031 71.097656 175.652344 C 71.265625 176.347656 71.773438 176.910156 72.449219 177.148438 L 77.300781 178.839844 C 69.773438 180.785156 59.3125 185.914062 52.714844 199.335938 C 52.394531 199.984375 52.433594 200.753906 52.816406 201.371094 C 53.199219 201.984375 53.871094 202.359375 54.597656 202.359375 L 68.515625 202.359375 C 69.191406 202.359375 69.824219 202.035156 70.21875 201.484375 C 75.457031 194.179688 92.429688 189.515625 109.34375 194.226562 C 121.980469 197.738281 139.980469 206.972656 150.40625 246.390625 C 150.441406 246.523438 150.511719 246.636719 150.570312 246.757812 C 150.554688 246.753906 150.539062 246.742188 150.523438 246.738281 L 136.796875 243.039062 C 137.066406 241.175781 137.210938 239.277344 137.210938 237.339844 C 137.210938 215.578125 119.507812 197.875 97.746094 197.875 C 75.980469 197.875 58.277344 215.578125 58.277344 237.339844 C 58.277344 259.105469 75.980469 276.808594 97.746094 276.808594 C 113.257812 276.808594 126.703125 267.808594 133.148438 254.757812 L 148.109375 257.207031 C 148.226562 257.226562 148.339844 257.234375 148.449219 257.234375 C 149.40625 257.234375 150.261719 256.582031 150.488281 255.625 L 150.820312 254.246094 L 201.550781 260.507812 C 201.878906 260.535156 202.203125 260.550781 202.523438 260.550781 C 207.03125 260.550781 211.136719 257.738281 212.722656 253.445312 L 214.792969 247.769531 L 227.191406 247.734375 C 228.09375 247.730469 228.898438 247.148438 229.179688 246.289062 L 249.277344 185.019531 L 259.675781 205.546875 C 249.910156 212.738281 243.554688 224.308594 243.554688 237.339844 C 243.554688 259.105469 261.261719 276.808594 283.023438 276.808594 C 304.789062 276.808594 322.492188 259.105469 322.492188 237.339844 C 322.492188 215.578125 304.789062 197.875 283.023438 197.875 " fill-opacity="1" fill-rule="nonzero"></path></g></svg>