<svg xmlns="http://www.w3.org/2000/svg" id="Layer_1" data-name="Layer 1" viewBox="0 0 80 80"><defs><style>.cls-1{fill:#e6e6e6;}.cls-2{fill:#cd192d;}</style></defs><title>iconos-triumph</title><circle class="cls-1" cx="40" cy="40" r="39.03"></circle><circle class="cls-2" cx="47.13" cy="29.13" r="0.94"></circle><path class="cls-2" d="M42.16,54.94l-2-.71L32.74,39.47a.7.7,0,0,0-.32-.31l-14.66-7a17,17,0,0,1,5.47-8,.7.7,0,0,0-.87-1.09,18.44,18.44,0,0,0-6.12,9.21.7.7,0,0,0,0,.29l1.34,9.75a.7.7,0,0,0,.12.3l1.4,2v2.84a.7.7,0,0,0,.46.65l22.14,8.08a.7.7,0,0,0,.48-1.31Zm-3.87-1.41-4-1.46L30,45.66a.7.7,0,0,0-.36-.27L18.88,41.74,18.64,40l1,.51a.7.7,0,0,0,.65-1.23l-1.84-1-.22-1.62,1.42.75a.7.7,0,0,0,.65-1.23L18,35l-.18-1.28L31.6,40.31ZM20.35,44.06,20,43.6l9,3,3.09,4.63L20.48,47V44.45a.7.7,0,0,0-.12-.4Z"></path><path class="cls-2" d="M63.28,26.49,42.11,20.38a24.93,24.93,0,0,0-8.19-1.28,18.71,18.71,0,0,0-8.73,2.13.7.7,0,1,0,.65,1.23,17.31,17.31,0,0,1,8.08-2,23.62,23.62,0,0,1,7.63,1.17l3,3.89A1.18,1.18,0,0,1,44,27.36L42.46,28a.7.7,0,0,0-.37.93l1.47,3.25A7.29,7.29,0,0,0,39,38.94V41.3A7.24,7.24,0,0,0,43,47.76l8,4.13-2.4,5.4-3.37-1.23a.7.7,0,1,0-.48,1.31l9.56,3.49a.7.7,0,0,0,.85-.32l3-5.54a.7.7,0,0,0,.08-.31l.18-7.05a.7.7,0,0,0-.25-.55L55,44.37a.7.7,0,0,0-1.06.18l-1.83,3.18-2.88-1.48a.7.7,0,1,0-.64,1.24l3.47,1.78A.7.7,0,0,0,53,49l1.74-3,1.1.94-2.06,3.58A1.18,1.18,0,0,1,52.2,51l-8.61-4.43A5.85,5.85,0,0,1,40.4,41.3V38.94a5.89,5.89,0,0,1,4.31-5.67l7.22-2q.3.65.57,1.35l-7.41,2a4.46,4.46,0,0,0-3.27,4.29V41.3a4.44,4.44,0,0,0,2.42,4l1.45.74a.7.7,0,0,0,.64-1.24L44.88,44a3,3,0,0,1-1.66-2.72V38.94A3.06,3.06,0,0,1,45.47,36l8.14-2.23a.7.7,0,0,0,.47-.9c-.21-.59-.43-1.16-.67-1.71h9.68a.7.7,0,0,0,.7-.7V27.16a.7.7,0,0,0-.5-.67ZM55,51.18l1.93-3.35.11.09-.14,5.65-.8-.38a.7.7,0,1,0-.6,1.26l1.11.53-.82,1.5-1.2-.57a.7.7,0,1,0-.6,1.26l1.13.54-.89,1.63-4.32-1.58,2.37-5.33A2.57,2.57,0,0,0,55,51.18Zm7.42-21.43H52.3l-.19,0-7.21,2L43.65,29l.93-.38a2.57,2.57,0,0,0,1.06-3.94l-1.83-2.39,18.58,5.37Z"></path><path class="cls-2" d="M19.85,30.49a.7.7,0,0,0,.33.93L24,33.24a.7.7,0,1,0,.6-1.26l-3.85-1.82A.7.7,0,0,0,19.85,30.49Z"></path></svg>