<svg xmlns="http://www.w3.org/2000/svg" id="Layer_1" data-name="Layer 1" viewBox="0 0 80 80"><defs><style>.cls-1{fill:#e6e6e6;}.cls-2{fill:#cd192d;}</style></defs><title>iconos-triumph</title><circle class="cls-1" cx="40" cy="40" r="39.03"></circle><path class="cls-2" d="M45.64,55.29h0a.8.8,0,1,0,1.11.22A.8.8,0,0,0,45.64,55.29Z"></path><path class="cls-2" d="M57,46.2A2.48,2.48,0,0,0,55.44,45a3,3,0,0,0-2.35.38l-6.22,3.95a2.73,2.73,0,0,0-2.76-1.78l-3,.22c-2.3.17-2.32.15-3.73-.66l-1.19-.67a11.48,11.48,0,0,0-6.49-1.27,26.47,26.47,0,0,0-6.55,1.47.8.8,0,0,0-.54.76v9.45a.8.8,0,0,0,1.06.75l3.6-1.25L35,59.68a8.35,8.35,0,0,0,3.3.77,10.15,10.15,0,0,0,5.41-2,.8.8,0,0,0-.86-1.35c-3.35,2.12-5,2-7.24,1.09l-8.11-3.47a.8.8,0,0,0-.58,0l-2.83,1V48c3.65-1.18,7.76-2,11.22-.13l1.16.65c1.65,1,2,1.07,4.65.88l3-.22a1.13,1.13,0,0,1,1.21,1,1,1,0,0,1,0,.31v0a1.38,1.38,0,0,1-1.12.89c-1.84.37-3.62.7-5.34,1l-2.64.49a.8.8,0,0,0,.3,1.57L39.24,54c1.73-.32,3.51-.65,5.37-1a3,3,0,0,0,2.25-1.75l7.09-4.5A1.41,1.41,0,0,1,55,46.54a.9.9,0,0,1,.58.43,1.32,1.32,0,0,1-.29,1.76L48.28,53.5a.8.8,0,1,0,.9,1.32L56.23,50A2.88,2.88,0,0,0,57,46.2Z"></path><path class="cls-2" d="M40,43.51A12,12,0,1,0,34.31,21a.8.8,0,0,0,.76,1.41,10.38,10.38,0,1,1-4.2,4.19.8.8,0,1,0-1.4-.76A12,12,0,0,0,40,43.51Z"></path><path class="cls-2" d="M32.1,24.41A.8.8,0,1,0,31.53,23h0a.8.8,0,0,0,.57,1.36Z"></path><path class="cls-2" d="M40,40.32a8.79,8.79,0,1,0-8.79-8.79A8.8,8.8,0,0,0,40,40.32Zm0-16a7.19,7.19,0,1,1-7.19,7.19A7.2,7.2,0,0,1,40,24.34Z"></path><path class="cls-2" d="M39,32l1.4.58a.71.71,0,1,1-.54,1.32l-.7-.29a.8.8,0,1,0-.61,1.48l.66.27v1a.8.8,0,0,0,1.6,0v-.9A2.31,2.31,0,0,0,41,31.08l-1.4-.58a.71.71,0,0,1,.55-1.32l.7.29A.8.8,0,0,0,41.46,28l-.66-.27v-1a.8.8,0,1,0-1.6,0v.9l-.2.07A2.31,2.31,0,0,0,39,32Z"></path></svg>